<svg width="95" height="95" viewBox="0 0 95 95" fill="none" xmlns="http://www.w3.org/2000/svg">
<path d="M85.5903 29.621C85.652 29.6922 85.2958 29.621 90.478 30.5377V30.2385L85.8325 29.3122C79.6148 22.2205 71.0078 19.6317 61.5078 19.9072C60.7953 17.5322 57.4465 6.422 56.848 4.883C56.183 3.173 55.0478 2.375 53.276 2.375C51.6088 2.375 27.151 8.93 25.726 9.32425C23.0233 10.051 14.668 12.122 9.10101 13.5565C3.80001 14.9292 4.38426 18.3112 4.75001 20.33C6.79251 31.825 11.6375 48.7872 19.437 66.7612C18.6977 69.035 18.4042 71.43 18.5725 73.815C19.228 82.7355 26.1203 89.167 33.212 91.1335L33.725 92.625H34.2333C33.611 90.9197 33.6538 90.782 33.4543 90.725C26.125 88.6207 19.8265 82.0562 19.152 73.7675C18.677 67.7967 21.527 61.5837 25.5788 57.9025C26.79 56.81 29.3788 55.0525 30.2385 56.4205C26.4955 62.3912 23.8498 69.2027 23.2275 73.9717C23.5542 73.9171 23.8896 73.9548 24.196 74.0807C24.5024 74.2066 24.7674 74.4157 24.9613 74.6842C25.0658 74.8267 25.023 75.107 24.7855 74.8695C24.6074 74.7045 24.3978 74.5774 24.1692 74.4957C23.9406 74.4141 23.6978 74.3797 23.4555 74.3945C23.4109 74.3996 23.3677 74.4136 23.3286 74.4356C23.2894 74.4576 23.2551 74.4873 23.2275 74.5227C23.0803 74.727 23.2275 75.031 23.4223 75.1972C23.8268 75.5022 24.3092 75.6866 24.814 75.7292C24.8945 75.7356 24.9754 75.7226 25.0498 75.6912C25.1242 75.6598 25.19 75.6109 25.2415 75.5487C26.7853 73.6396 28.1781 71.6131 29.4073 69.4877C29.9465 71.3425 30.765 73.1043 31.8345 74.7127L30.875 76.475C30.8697 76.4837 30.8662 76.4934 30.8646 76.5035C30.8631 76.5136 30.8635 76.5239 30.8659 76.5338C30.8684 76.5438 30.8727 76.5531 30.8788 76.5614C30.8848 76.5696 30.8924 76.5766 30.9011 76.5819C30.9099 76.5872 30.9196 76.5907 30.9297 76.5923C30.9398 76.5938 30.9501 76.5934 30.96 76.5909C30.9699 76.5885 30.9793 76.5842 30.9875 76.5781C30.9957 76.5721 31.0027 76.5645 31.008 76.5557L32.3 74.8125C32.3174 74.7856 32.3266 74.7543 32.3266 74.7222C32.3266 74.6902 32.3174 74.6589 32.3 74.632C31.5534 73.5269 30.917 72.3511 30.4 71.1217C29.9005 69.9067 29.5295 68.6426 29.2933 67.3502C27.7115 57.9832 38.1093 63.4362 40.6173 76.5842C41.8238 82.8542 40.0378 86.5592 40.0378 86.8632C40.0398 86.8863 40.0495 86.908 40.0652 86.9249C40.0809 86.9419 40.1018 86.9532 40.1247 86.957C40.1475 86.9608 40.1709 86.9569 40.1913 86.9459C40.2117 86.935 40.2278 86.9176 40.2373 86.8965C41.2607 83.9935 41.5861 80.8904 41.1873 77.8382C41.9567 77.8721 42.7268 77.7905 43.472 77.596C44.1988 79.496 44.365 81.2107 43.6383 83.1725C43.6225 83.2017 43.6142 83.2343 43.6142 83.2675C43.6142 83.3007 43.6225 83.3333 43.6383 83.3625L50.1125 92.625H50.7063L44.023 83.22C44.1142 82.9915 44.1935 82.7584 44.2605 82.5217C44.2605 82.5217 56.6105 79.0495 59.8643 77.9475C61.959 77.235 70.5755 74.4657 73.5063 73.5347C76.5748 72.561 77.862 71.687 78.413 70.2097C78.964 68.7325 78.1423 66.6662 76.266 62.054C75.2733 59.6077 70.091 45.7662 69.768 44.954C72.618 44.9017 76.456 43.4815 78.793 41.9995L90.459 47.8562V47.3812L78.7883 41.2965C77.0023 42.332 74.214 44.1987 69.6873 44.7165C66.8088 37.0547 67.222 38.437 65.6545 33.4495C66.31 33.3735 66.9703 33.2785 67.621 33.174L71.5493 36.195C71.5707 36.2126 71.5982 36.221 71.6258 36.2184C71.6535 36.2157 71.6789 36.2022 71.6965 36.1807C71.7141 36.1593 71.7225 36.1318 71.7199 36.1042C71.7172 36.0766 71.7037 36.0511 71.6823 36.0335L67.8253 32.775C67.678 32.6562 67.6305 32.775 65.5263 32.9555C63.2368 33.1882 58.0545 33.4685 56.221 32.0957C55.271 31.3547 55.4753 30.419 56.2875 29.507C59.6125 25.9255 69.2503 24.624 74.4325 24.4435C74.4451 24.4465 74.4582 24.4467 74.4708 24.4439C74.4834 24.4411 74.4953 24.4355 74.5054 24.4275C74.5156 24.4195 74.5238 24.4093 74.5294 24.3977C74.5351 24.3861 74.538 24.3733 74.538 24.3604C74.538 24.3474 74.5351 24.3347 74.5294 24.323C74.5238 24.3114 74.5156 24.3012 74.5054 24.2932C74.4953 24.2852 74.4834 24.2796 74.4708 24.2769C74.4582 24.2741 74.4451 24.2742 74.4325 24.2772C70.665 24.2818 66.9131 24.7605 63.2653 25.7022C62.7143 23.8972 62.149 22.04 61.598 20.216C79.1778 20.3205 84.493 28.918 85.5903 29.621ZM9.47151 14.9197C15.3188 13.4092 48.0938 4.82125 52.535 3.9045C53.1326 3.73146 53.7698 3.75309 54.3543 3.96625C55.0905 4.27975 55.404 4.98275 55.7793 6.03725C45.6998 8.23175 12.825 16.891 5.97551 19.1045C5.76651 17.4135 6.05626 15.8032 9.47151 14.9197ZM5.98976 19.1947C10.5735 17.7697 26.1963 13.6562 30.8608 12.4355C49.818 7.4385 55.784 6.12275 55.7935 6.118C56.0643 6.93025 56.4728 8.22225 56.9668 9.82775C47.595 11.6802 15.1668 20.4725 6.74026 23.1277C6.49801 22.0257 6.11801 20.1732 5.98976 19.2042V19.1947ZM6.76401 23.2132C12.9818 21.3132 48.2363 11.704 56.9953 9.91325C57.4703 11.476 58.045 13.3332 58.6483 15.3235C51.4045 16.872 15.9743 26.182 8.04651 28.6235C7.51926 26.5192 7.08226 24.6572 6.76401 23.2227V23.2132ZM30.4 56.183C29.3408 54.72 26.7188 56.4205 25.3365 57.608C23.9745 58.8164 22.7896 60.2108 21.8168 61.75C21.0235 61.465 20.3585 59.85 19.646 58.083C18.6192 55.609 17.756 53.0702 17.062 50.483C16.872 49.6517 16.8435 49.0105 17.5085 48.4547C18.3208 47.7612 21.7835 46.6497 22.8048 46.322C24.7523 45.695 26.9468 45.182 28.937 44.7402C29.7255 44.5692 30.5663 44.5882 31.0365 45.0917C31.7348 45.8232 33.003 49.5377 33.7203 51.6277C32.9318 52.5777 32.167 53.5705 31.4355 54.625C29.7473 53.5452 27.9478 52.6502 26.068 51.9555C26.543 51.1195 28.5475 47.5237 29.1745 46.3552C29.189 46.33 29.1929 46.3001 29.1853 46.2721C29.1777 46.244 29.1593 46.2201 29.1341 46.2056C29.1089 46.1911 29.079 46.1872 29.051 46.1948C29.0229 46.2024 28.999 46.2208 28.9845 46.246C27.6688 48.2267 26.5858 49.9842 25.5883 51.7702C23.237 50.901 21.3133 50.3452 19.1045 49.7467C19.0768 49.7373 19.0465 49.7392 19.0202 49.7522C18.9939 49.7651 18.9738 49.7879 18.9644 49.8156C18.9549 49.8433 18.9569 49.8737 18.9698 49.8999C18.9827 49.9262 19.0055 49.9463 19.0333 49.9557C20.5485 50.5542 23.2323 51.433 25.3318 52.2262C24.0858 54.4606 23.043 56.8022 22.2158 59.223C22.2104 59.2481 22.214 59.2744 22.2261 59.2971C22.2381 59.3198 22.2578 59.3375 22.2816 59.3472C22.3054 59.3568 22.3319 59.3577 22.3563 59.3498C22.3808 59.3419 22.4016 59.3256 22.4153 59.3037C24.149 55.5417 25.5978 52.8295 25.821 52.4115C27.6863 53.1072 29.4924 53.9523 31.2218 54.9385C30.9368 55.328 30.6613 55.7507 30.4 56.183ZM32.775 62.7237C32.984 62.225 33.1883 61.7262 33.383 61.2275C34.6845 61.2797 37.259 61.4887 37.962 62.5907C38.665 63.6927 37.1973 64.828 35.872 65.2602C35.0268 64.2091 33.9721 63.3453 32.775 62.7237ZM36.214 65.6782C38.0048 66.0107 42.199 66.7803 42.5078 68.5805C42.7548 69.939 40.7123 70.7132 39.2398 70.8747C38.4618 69.0212 37.4498 67.2748 36.2283 65.6782H36.214ZM41.1065 77.5817C40.8659 75.7437 40.4198 73.9385 39.7765 72.2C41.4865 72.8127 45.4433 74.575 44.8685 76.2517C44.498 77.349 42.3843 77.6007 41.1208 77.5817H41.1065ZM77.0783 69.7062C76.7648 70.5517 75.981 71.2642 73.0645 72.1905C58.311 76.874 59.1708 76.8835 44.479 80.9922C44.5149 79.7834 44.2245 78.5872 43.6383 77.5295C43.9613 77.453 44.2633 77.3055 44.5221 77.0976C44.7809 76.8897 44.9902 76.6267 45.1345 76.3277C45.8185 74.3612 41.534 72.5277 39.6103 71.782C39.4155 71.269 39.3775 71.1977 39.3443 71.117C40.9735 70.8842 43.0113 70.0197 42.7548 68.5425C42.7203 68.3429 42.6495 68.1513 42.5458 67.9772C42.5458 67.9772 72.2665 59.185 73.5015 58.8715C75.7435 64.6855 77.5628 68.4332 77.0925 69.7062H77.0783ZM56.0833 29.3312C54.8435 30.723 55.48 31.6017 55.4753 31.6635C55.623 31.9115 55.8183 32.1278 56.05 32.3C56.38 32.5623 56.7464 32.7751 57.1378 32.9317C49.875 35.15 18.183 44.27 18.05 44.3127C16.302 44.7877 15.1478 45.1297 14.25 42.5837C16.15 40.375 22.4723 33.0172 23.75 32.1052C24.2001 31.7689 24.7462 31.5858 25.308 31.5827C27.2698 31.5257 37.2353 36.2187 38.9785 35.3827C40.1755 34.8032 44.3223 28.2862 44.365 28.2245C47.3338 23.6502 46.949 23.9115 53.7083 25.0135C55.214 25.2605 57.2708 25.593 59.945 26.0157L60.1493 26.752C58.615 27.3647 57.0713 28.2245 56.0975 29.3265L56.0833 29.3312ZM14.1123 42.275C13.3 39.9 11.1055 32.8747 11.2338 31.825C11.291 31.4489 11.4561 31.0976 11.709 30.8134C11.962 30.5293 12.2919 30.3247 12.6588 30.2242C14.231 29.7825 55.2948 18.5582 56.4205 18.5582C57.3183 18.5582 57.665 19.0332 58.007 19.9025C58.7185 21.8148 59.3336 23.7616 59.85 25.7355C49.875 24.092 49.1008 23.7642 47.6948 24.092C46.512 24.3675 45.9848 25.042 44.0373 28.0012C42.579 30.2527 39.6055 34.6227 38.8123 35.017C38.1283 35.3495 37.7625 35.2355 35.7438 34.6037C33.1598 33.7915 31.749 33.3355 28.7375 32.1432C26.923 31.4212 25.156 30.6375 23.5125 31.8012C22.0163 32.889 15.295 40.85 14.1123 42.275ZM61.9068 26.0822C61.4318 26.2342 60.9235 26.41 60.4153 26.6142C59.8178 24.3107 59.0947 22.0415 58.2493 19.817C57.8645 18.867 57.437 18.3207 56.4015 18.3065C55.8268 18.3065 31.084 24.7 12.5685 29.9725C12.153 30.0901 11.7799 30.3245 11.4937 30.6478C11.2074 30.9711 11.0199 31.3698 10.9535 31.7965C10.792 33.0172 12.9295 39.8715 13.9128 42.5267C15.067 45.6427 16.34 45.0252 18.5868 44.4267C27.8825 42.0042 48.0368 36.0952 57.57 33.1027C59.622 33.7867 62.0778 33.7345 64.22 33.5777C65.0133 36.119 65.645 38.0665 65.987 38.931C66.6188 40.5412 72.3188 55.7365 73.4825 58.7765C71.2263 59.337 70.1053 59.698 42.5078 67.8917C41.4865 66.3147 38.2898 65.5595 36.3945 65.3315C37.4443 64.8565 38.4608 64.0965 38.3895 62.9565C38.3183 61.8165 36.5418 61.3557 35.9623 61.2132C35.1608 61.0267 34.3431 60.9186 33.5208 60.8902C34.6587 57.9975 35.4897 54.9933 36.0003 51.927C36.138 51.0577 34.6703 50.502 34.2 51.0245L33.7915 51.4995C32.6848 48.222 31.7158 45.5572 31.0888 44.8875C30.6138 44.3507 29.6258 44.4552 28.9038 44.5645C26.4148 44.954 18.8813 47.0297 17.3993 48.2837C16.8863 48.792 16.5965 49.172 16.8958 50.4782C17.5788 53.0898 18.4406 55.6514 19.475 58.1447C20.0403 59.527 20.8335 61.5457 21.7265 61.8687C21.1218 62.8242 20.5915 63.8246 20.14 64.8612C15.6228 54.5632 12.54 46.8112 8.06551 28.7612C15.4328 26.524 52.839 16.7295 58.672 15.4612C59.0805 16.758 61.275 23.9305 61.9068 26.0822Z" fill="white"/>
<path d="M36.2995 49.2575C35.948 49.1292 35.245 50.2075 35.0692 50.5067C35.0645 50.5143 35.0615 50.5228 35.0607 50.5317C35.0598 50.5406 35.061 50.5496 35.0643 50.5579C35.0675 50.5662 35.0726 50.5737 35.0793 50.5796C35.0859 50.5856 35.0939 50.5899 35.1025 50.5923C35.371 50.6532 35.6225 50.7733 35.8387 50.9437C35.8441 50.9498 35.8507 50.9547 35.858 50.958C35.8654 50.9613 35.8734 50.963 35.8815 50.963C35.8896 50.963 35.8976 50.9613 35.9049 50.958C35.9123 50.9547 35.9189 50.9498 35.9242 50.9437C36.0715 50.6302 36.651 49.4 36.2995 49.2575ZM10.64 19.6033C9.72479 19.7823 8.838 20.0843 8.00373 20.501C8.2801 20.0771 8.52918 19.6361 8.74948 19.1805C8.75349 19.17 8.75365 19.1584 8.74994 19.1478C8.74623 19.1372 8.73888 19.1283 8.7292 19.1226C8.71951 19.1169 8.70813 19.1148 8.69706 19.1167C8.68599 19.1186 8.67595 19.1244 8.66873 19.133C8.35635 19.6015 8.07548 20.0902 7.82798 20.596C7.74723 20.767 9.15798 21.1565 9.34323 21.185C9.3532 21.185 9.36292 21.1819 9.37101 21.176C9.37909 21.1702 9.38514 21.162 9.38829 21.1525C9.39145 21.1431 9.39154 21.1329 9.38857 21.1233C9.3856 21.1138 9.37971 21.1055 9.37173 21.0995C8.94379 20.8891 8.49262 20.7297 8.02748 20.6245C8.88378 20.2633 9.76283 19.9587 10.659 19.7125C10.7445 19.6603 10.7207 19.589 10.64 19.6033ZM15.618 18.3208C15.0886 18.038 14.5374 17.7982 13.9697 17.6035C13.9589 17.6008 13.9474 17.602 13.9374 17.6069C13.9274 17.6118 13.9194 17.6201 13.9148 17.6303C13.9103 17.6405 13.9095 17.652 13.9126 17.6627C13.9157 17.6735 13.9225 17.6828 13.9317 17.689C14.3902 17.939 14.8665 18.1549 15.3567 18.335C14.4495 18.4227 13.5607 18.6469 12.7205 19C12.7112 19.0062 12.7044 19.0155 12.7014 19.0263C12.6983 19.037 12.6991 19.0485 12.7036 19.0587C12.7081 19.0689 12.7161 19.0772 12.7262 19.0821C12.7362 19.087 12.7476 19.0882 12.7585 19.0855C13.3855 18.886 14.2927 18.7103 15.4707 18.468C15.1649 18.8387 14.8931 19.2361 14.6585 19.6555C14.6554 19.666 14.6557 19.6771 14.6593 19.6874C14.6629 19.6977 14.6696 19.7066 14.6785 19.7128C14.6874 19.7191 14.698 19.7225 14.7089 19.7224C14.7198 19.7223 14.7304 19.7189 14.7392 19.7125C15.0793 19.31 15.3799 18.8757 15.637 18.4158C15.6441 18.4091 15.6493 18.4008 15.6523 18.3916C15.6553 18.3823 15.6558 18.3725 15.6539 18.363C15.652 18.3535 15.6477 18.3446 15.6414 18.3372C15.6351 18.3298 15.6271 18.3241 15.618 18.3208ZM19.8597 17.6938C19.8448 17.9723 19.73 18.2361 19.5363 18.4367C19.3426 18.6374 19.083 18.7615 18.8052 18.7863C18.5383 18.8073 18.2721 18.7382 18.0491 18.5901C17.8261 18.442 17.6591 18.2234 17.575 17.9693C17.5048 17.7075 17.5294 17.4294 17.6443 17.184C17.7593 16.9386 17.9573 16.7417 18.2033 16.6281C18.4493 16.5144 18.7275 16.4914 18.9889 16.5629C19.2503 16.6345 19.4779 16.7961 19.6317 17.0193C19.4019 17.0082 19.1715 17.0161 18.943 17.043C18.9304 17.043 18.9183 17.048 18.9094 17.0569C18.9005 17.0658 18.8955 17.0779 18.8955 17.0905C18.8955 17.1031 18.9005 17.1152 18.9094 17.1241C18.9183 17.133 18.9304 17.138 18.943 17.138C19.2066 17.1664 19.4726 17.1664 19.7362 17.138C19.7466 17.1356 19.7562 17.1303 19.7637 17.1228C19.7713 17.1152 19.7766 17.1057 19.779 17.0953C19.8382 16.8207 19.8527 16.5384 19.8217 16.2593C19.8217 16.2467 19.8167 16.2346 19.8078 16.2257C19.7989 16.2168 19.7868 16.2118 19.7742 16.2118C19.7616 16.2118 19.7496 16.2168 19.7406 16.2257C19.7317 16.2346 19.7267 16.2467 19.7267 16.2593C19.6789 16.4791 19.6613 16.7044 19.6745 16.929C18.8052 15.675 16.9955 16.7105 17.3945 18.0595C17.8267 19.5748 20.1305 19.1853 19.9595 17.727C19.9639 17.7138 19.9629 17.6993 19.9566 17.6869C19.9504 17.6744 19.9395 17.6649 19.9262 17.6605C19.913 17.6561 19.8986 17.6571 19.8861 17.6634C19.8736 17.6696 19.8641 17.6805 19.8597 17.6938ZM8.88723 16.15C8.7651 16.15 8.64571 16.1862 8.54417 16.2541C8.44262 16.3219 8.36347 16.4184 8.31674 16.5312C8.27 16.644 8.25777 16.7682 8.2816 16.888C8.30542 17.0078 8.36423 17.1178 8.45059 17.2041C8.53695 17.2905 8.64698 17.3493 8.76676 17.3731C8.88655 17.397 9.0107 17.3847 9.12354 17.338C9.23637 17.2913 9.33281 17.2121 9.40066 17.1106C9.46852 17.009 9.50473 16.8896 9.50473 16.7675C9.50473 16.6037 9.43967 16.4467 9.32387 16.3309C9.20807 16.2151 9.051 16.15 8.88723 16.15ZM11.0675 15.4945C10.9454 15.4945 10.826 15.5307 10.7244 15.5986C10.6229 15.6664 10.5437 15.7629 10.497 15.8757C10.4502 15.9885 10.438 16.1127 10.4618 16.2325C10.4857 16.3523 10.5445 16.4623 10.6308 16.5486C10.7172 16.635 10.8272 16.6938 10.947 16.7176C11.0668 16.7415 11.191 16.7292 11.3038 16.6825C11.4166 16.6358 11.5131 16.5566 11.5809 16.4551C11.6488 16.3535 11.685 16.2341 11.685 16.112C11.685 15.9482 11.6199 15.7912 11.5041 15.6754C11.3883 15.5596 11.2313 15.4945 11.0675 15.4945ZM13.2525 14.8533C13.1304 14.8533 13.011 14.8895 12.9094 14.9573C12.8079 15.0252 12.7287 15.1216 12.682 15.2344C12.6352 15.3473 12.623 15.4714 12.6468 15.5912C12.6707 15.711 12.7295 15.821 12.8158 15.9074C12.9022 15.9937 13.0122 16.0526 13.132 16.0764C13.2518 16.1002 13.376 16.088 13.4888 16.0412C13.6016 15.9945 13.6981 15.9154 13.7659 15.8138C13.8338 15.7123 13.87 15.5929 13.87 15.4708C13.87 15.307 13.8049 15.1499 13.6891 15.0341C13.5733 14.9183 13.4163 14.8533 13.2525 14.8533ZM54.2782 7.39575C53.9077 7.39575 26.2865 14.4163 23.9827 15.0338C22.5577 15.4185 22.23 15.447 21.945 15.922C21.8412 16.0898 21.7844 16.2825 21.7805 16.4798C21.7766 16.6771 21.8257 16.8718 21.9228 17.0436C22.0199 17.2155 22.1613 17.3581 22.3323 17.4565C22.5033 17.555 22.6977 17.6058 22.895 17.6035C23.2684 17.5557 23.635 17.4648 23.9875 17.3328C30.0532 15.675 53.9695 9.73275 54.264 9.67575C54.4547 9.65319 54.6383 9.58974 54.8023 9.48973C54.9662 9.38972 55.1066 9.2555 55.214 9.09625C55.3157 8.92793 55.3713 8.73582 55.3753 8.53919C55.3793 8.34257 55.3315 8.14836 55.2367 7.97606C55.1418 7.80376 55.0034 7.65944 54.8351 7.55758C54.6669 7.45572 54.4748 7.39991 54.2782 7.39575ZM55.1285 9.025C55.0263 9.17048 54.8942 9.29238 54.741 9.38251C54.5878 9.47264 54.417 9.5289 54.2402 9.5475C19.6602 18.2068 23.2227 17.5038 22.8902 17.5038C22.7139 17.5009 22.5414 17.4518 22.3901 17.3614C22.2387 17.271 22.1137 17.1424 22.0276 16.9885C21.9415 16.8346 21.8973 16.6608 21.8995 16.4845C21.9017 16.3081 21.9501 16.1355 22.04 15.9838C22.2917 15.5753 22.515 15.5563 24.0017 15.1573C26.6617 14.44 53.9267 7.524 54.264 7.524C54.4398 7.5234 54.6127 7.5693 54.7651 7.65705C54.9175 7.74479 55.044 7.87127 55.1318 8.02366C55.2195 8.17604 55.2655 8.34892 55.2649 8.52477C55.2643 8.70062 55.2172 8.8732 55.1285 9.025Z" fill="white"/>
<path d="M24.5385 16.625C24.4123 16.5273 24.2732 16.4474 24.1252 16.3875C24.188 16.2553 24.1975 16.1039 24.1517 15.9649C24.106 15.8259 24.0085 15.7098 23.8794 15.6407C23.7504 15.5716 23.5997 15.5547 23.4586 15.5937C23.3175 15.6326 23.1968 15.7243 23.1215 15.8499C23.0462 15.9754 23.0221 16.125 23.0541 16.2679C23.0861 16.4107 23.1719 16.5357 23.2936 16.617C23.4153 16.6984 23.5636 16.7298 23.7078 16.7047C23.852 16.6797 23.9811 16.6001 24.0682 16.4825C24.202 16.5725 24.3454 16.6474 24.4957 16.7057C24.5059 16.7079 24.5164 16.7067 24.5257 16.7023C24.5351 16.6979 24.5428 16.6906 24.5476 16.6815C24.5524 16.6724 24.5542 16.6619 24.5525 16.6517C24.5509 16.6415 24.546 16.6321 24.5385 16.625ZM23.5885 16.625C23.4935 16.6307 23.3991 16.6078 23.3173 16.5592C23.2355 16.5106 23.1702 16.4385 23.1299 16.3524C23.0895 16.2663 23.0759 16.17 23.0909 16.076C23.1059 15.9821 23.1487 15.8948 23.2139 15.8255C23.279 15.7562 23.3635 15.7081 23.4563 15.6873C23.5492 15.6665 23.6461 15.6741 23.7346 15.7091C23.823 15.7441 23.899 15.8048 23.9525 15.8834C24.0061 15.962 24.0348 16.0549 24.035 16.15C24.0355 16.2689 23.9913 16.3837 23.9113 16.4716C23.8313 16.5596 23.7212 16.6143 23.6027 16.625H23.5885ZM53.5705 8.493C53.4707 7.83275 53.238 7.885 53.1477 8.246C53.1256 8.32699 53.1097 8.40957 53.1002 8.493C52.9435 8.493 52.592 8.45025 52.516 8.59275C52.44 8.73525 52.5967 8.81125 52.7155 8.8635C52.7963 8.89811 52.8808 8.9236 52.9672 8.9395C52.858 9.08675 52.7202 9.367 52.8627 9.45725C53.0052 9.5475 53.2712 9.26725 53.39 9.139C53.5135 9.2435 53.7557 9.41925 53.8935 9.33375C54.0312 9.24825 53.8127 8.99175 53.6892 8.85875C53.8507 8.8255 54.093 8.7495 54.055 8.59275C54.017 8.436 53.7177 8.47875 53.5705 8.493ZM53.6227 8.8255C53.5942 8.8255 53.5847 8.84925 53.6227 8.87775C53.6607 8.90625 53.9315 9.2055 53.8602 9.272C53.789 9.3385 53.523 9.13425 53.4232 9.063C53.4162 9.0583 53.4079 9.05579 53.3995 9.05579C53.391 9.05579 53.3828 9.0583 53.3757 9.063C53.219 9.215 52.9767 9.424 52.9007 9.367C52.8247 9.31 53.0337 8.97275 53.0527 8.9205C53.0571 8.91606 53.0595 8.91009 53.0595 8.90387C53.0595 8.89766 53.0571 8.89169 53.0527 8.88725C52.9672 8.854 52.6062 8.74475 52.63 8.626C52.6537 8.50725 53.105 8.55 53.1572 8.55475C53.2095 8.5595 53.1952 8.531 53.2 8.493C53.2902 8.018 53.371 8.05125 53.409 8.11775C53.4672 8.24884 53.5164 8.38373 53.5562 8.5215V8.54525C53.5562 8.54525 53.9647 8.54525 53.9932 8.626C54.0217 8.70675 53.7367 8.80175 53.6227 8.8255ZM35.283 49.2147C34.39 46.1937 33.725 44.9112 34.0432 43.8805C34.6797 42.0327 41.1682 40.4557 43.3295 39.957C44.0657 39.786 45.733 39.3965 46.4407 39.5485C47.1485 39.7005 47.576 40.1137 49.2052 45.011C49.8923 47.0202 50.4555 49.0698 50.8915 51.148C50.9677 51.3926 50.9889 51.651 50.9536 51.9047C50.9183 52.1585 50.8273 52.4013 50.6872 52.6157C49.9367 53.6132 44.555 55.0857 43.3485 55.4182C37.4822 57.0285 38.19 56.7862 36.4372 52.3925C36.4372 52.3837 36.4337 52.3752 36.4275 52.369C36.4213 52.3627 36.4128 52.3592 36.404 52.3592C36.3952 52.3592 36.3867 52.3627 36.3805 52.369C36.3742 52.3752 36.3707 52.3837 36.3707 52.3925C37.1402 54.7675 37.4205 56.1307 38.684 56.4537C39.634 56.7055 42.3842 55.8315 43.3912 55.5465C49.723 53.7272 50.4117 53.219 50.8155 52.6965C50.9676 52.465 51.0672 52.2031 51.1074 51.929C51.1476 51.6549 51.1274 51.3754 51.0482 51.11C50.6141 49.0189 50.0509 46.9566 49.362 44.935C47.7232 40.0425 47.3052 39.5532 46.474 39.3727C45.752 39.216 44.2985 39.5532 43.2962 39.786C41.135 40.2942 34.6037 41.8665 33.9102 43.814C33.5255 44.9682 34.713 47.9702 35.2117 49.2147C35.2307 49.2812 35.2972 49.2575 35.283 49.2147ZM55.176 51.547C56.5392 51.4662 62.6145 49.7467 65.626 48.431C66.6425 47.9845 67.1507 47.5332 66.9085 46.455C65.915 42.9556 64.6932 39.5251 63.251 36.1855C63.0702 35.634 62.6978 35.1655 62.2012 34.865C61.1087 34.3425 55.8125 36.0667 54.0502 36.6367C52.934 36.9977 51.0245 37.6105 50.2502 38.38C49.5662 39.0355 49.6612 39.8715 49.9177 40.7835C52.896 51.3 53.5087 51.642 55.176 51.547ZM50.312 38.475C51.0862 37.7292 52.991 37.126 54.0787 36.7745C55.5892 36.2995 61.1182 34.5277 62.1537 35.0075C62.6173 35.2973 62.9638 35.7414 63.1322 36.2615C64.5688 39.5895 65.778 43.011 66.7517 46.5025C66.9465 47.538 66.538 47.8562 65.5737 48.279C63.023 49.3952 56.6295 51.3047 55.1902 51.3997C53.5372 51.5042 52.972 50.9247 50.0222 40.7692C49.7562 39.9 49.6612 39.083 50.312 38.475ZM17.9075 21.9355C17.9008 21.9056 17.8882 21.8773 17.8704 21.8524C17.8525 21.8275 17.8299 21.8064 17.8037 21.7904C17.7775 21.7745 17.7484 21.764 17.7181 21.7595C17.6878 21.755 17.6569 21.7567 17.6272 21.7645L9.2055 23.9922C9.14251 24.0086 9.0886 24.0494 9.05565 24.1055C9.02269 24.1616 9.01337 24.2285 9.02975 24.2915C9.04612 24.3545 9.08685 24.4084 9.14297 24.4413C9.19909 24.4743 9.26601 24.4836 9.329 24.4672L17.746 22.2395C17.7774 22.2315 17.8068 22.217 17.8322 22.197C17.8577 22.1769 17.8787 22.1518 17.8939 22.1232C17.9091 22.0946 17.9182 22.0631 17.9205 22.0308C17.9229 21.9985 17.9184 21.966 17.9075 21.9355ZM16.0787 24.3105C16.0716 24.281 16.0585 24.2533 16.0405 24.2289C16.0224 24.2045 15.9997 24.1839 15.9736 24.1685C15.9475 24.153 15.9185 24.1429 15.8885 24.1387C15.8584 24.1345 15.8278 24.1364 15.7985 24.1442L9.671 25.764C9.6407 25.7722 9.61237 25.7864 9.58771 25.8057C9.56304 25.8251 9.54255 25.8493 9.52747 25.8768C9.51238 25.9043 9.50302 25.9346 9.49993 25.9658C9.49684 25.997 9.50009 26.0286 9.5095 26.0585C9.51662 26.0879 9.52965 26.1155 9.54778 26.1397C9.56592 26.164 9.58879 26.1842 9.615 26.1993C9.6412 26.2144 9.67021 26.2241 9.70025 26.2276C9.73029 26.2312 9.76074 26.2286 9.78975 26.22L15.9172 24.6002C15.947 24.592 15.9748 24.578 15.9991 24.5589C16.0234 24.5399 16.0436 24.5162 16.0587 24.4892C16.0737 24.4622 16.0832 24.4325 16.0867 24.4019C16.0901 24.3712 16.0874 24.3401 16.0787 24.3105ZM21.4225 20.9C21.4391 20.959 21.4784 21.0091 21.5318 21.0394C21.5851 21.0696 21.6483 21.0776 21.7075 21.0615L30.1245 18.8337C30.1541 18.826 30.1819 18.8124 30.2063 18.7938C30.2307 18.7753 30.2512 18.7521 30.2666 18.7257C30.2821 18.6992 30.2922 18.67 30.2963 18.6396C30.3004 18.6093 30.2985 18.5784 30.2907 18.5487C30.2829 18.5191 30.2694 18.4913 30.2509 18.4669C30.2323 18.4425 30.2091 18.422 30.1827 18.4066C30.1562 18.3912 30.127 18.3811 30.0966 18.3769C30.0663 18.3728 30.0354 18.3747 30.0057 18.3825L21.5887 20.6292C21.5319 20.6449 21.4831 20.6816 21.4522 20.7318C21.4214 20.7821 21.4107 20.8422 21.4225 20.9ZM28.462 20.9427C28.4453 20.8835 28.4062 20.8331 28.3531 20.8021C28.2999 20.771 28.2368 20.7619 28.177 20.7765L22.0495 22.401C22.0194 22.4086 21.9911 22.4223 21.9665 22.4412C21.9419 22.4601 21.9214 22.4839 21.9062 22.511C21.8911 22.5382 21.8817 22.5681 21.8786 22.599C21.8754 22.6299 21.8786 22.6611 21.888 22.6907C21.9037 22.7496 21.9418 22.8 21.9942 22.8311C22.0466 22.8622 22.1091 22.8715 22.1682 22.857L28.3005 21.2325C28.3599 21.2148 28.41 21.1746 28.4402 21.1205C28.4704 21.0664 28.4782 21.0026 28.462 20.9427ZM33.8057 17.575C33.8129 17.6045 33.826 17.6322 33.844 17.6566C33.8621 17.681 33.8848 17.7016 33.9109 17.717C33.937 17.7325 33.966 17.7426 33.996 17.7468C34.0261 17.751 34.0567 17.7491 34.086 17.7412L42.503 15.5135C42.5334 15.5053 42.5618 15.4911 42.5866 15.4718C42.6115 15.4525 42.6322 15.4284 42.6477 15.401C42.6632 15.3736 42.673 15.3434 42.6767 15.3122C42.6804 15.2809 42.6779 15.2493 42.6692 15.219C42.6516 15.1606 42.6121 15.1113 42.559 15.0812C42.506 15.0512 42.4434 15.0427 42.3842 15.0575L33.9672 17.2615C33.9343 17.2686 33.9033 17.2829 33.8765 17.3034C33.8497 17.3239 33.8278 17.35 33.8123 17.38C33.7969 17.41 33.7883 17.4431 33.7871 17.4768C33.786 17.5105 33.7923 17.544 33.8057 17.575ZM40.85 17.575C40.8334 17.516 40.7941 17.4659 40.7407 17.4356C40.6873 17.4054 40.6242 17.3974 40.565 17.4135L34.4375 19.0332C34.3745 19.0496 34.3206 19.0904 34.2876 19.1465C34.2547 19.2026 34.2454 19.2695 34.2617 19.3325C34.2781 19.3955 34.3189 19.4494 34.375 19.4823C34.4311 19.5153 34.498 19.5246 34.561 19.5082L40.6885 17.8837C40.7209 17.8765 40.7513 17.8623 40.7776 17.8422C40.804 17.822 40.8256 17.7963 40.8409 17.7669C40.8563 17.7375 40.8651 17.7051 40.8667 17.6719C40.8682 17.6388 40.8625 17.6057 40.85 17.575ZM46.1842 14.1882C46.192 14.2173 46.2053 14.2445 46.2236 14.2684C46.2419 14.2923 46.2647 14.3123 46.2908 14.3273C46.3168 14.3423 46.3456 14.352 46.3754 14.3559C46.4052 14.3597 46.4355 14.3576 46.4645 14.3497L54.8862 12.122C54.916 12.1138 54.9438 12.0997 54.9681 12.0807C54.9924 12.0616 55.0126 12.0379 55.0277 12.0109C55.0427 11.984 55.0522 11.9543 55.0557 11.9236C55.0591 11.8929 55.0564 11.8619 55.0477 11.8322C55.04 11.8026 55.0265 11.7747 55.008 11.7503C54.9894 11.7259 54.9663 11.7053 54.9398 11.6899C54.9133 11.6744 54.884 11.6644 54.8536 11.6603C54.8233 11.6562 54.7924 11.6581 54.7627 11.666L46.3457 13.8937C46.2853 13.9114 46.2343 13.9523 46.204 14.0075C46.1737 14.0628 46.1666 14.1278 46.1842 14.1882ZM53.2 14.212C53.1928 14.1825 53.1798 14.1548 53.1617 14.1304C53.1437 14.106 53.1209 14.0854 53.0948 14.07C53.0687 14.0545 53.0398 14.0444 53.0097 14.0402C52.9797 14.036 52.9491 14.0379 52.9197 14.0457L46.8112 15.675C46.7816 15.6828 46.7538 15.6964 46.7294 15.7149C46.705 15.7334 46.6845 15.7566 46.6691 15.7831C46.6537 15.8095 46.6436 15.8388 46.6394 15.8691C46.6353 15.8995 46.6372 15.9304 46.645 15.96C46.6528 15.9896 46.6663 16.0174 46.6849 16.0418C46.7034 16.0662 46.7266 16.0867 46.7531 16.1021C46.7795 16.1176 46.8088 16.1277 46.8391 16.1318C46.8695 16.1359 46.9004 16.134 46.93 16.1262L53.0575 14.5065C53.0865 14.4969 53.1132 14.4816 53.1361 14.4615C53.1591 14.4414 53.1777 14.4168 53.191 14.3894C53.2043 14.3619 53.2119 14.3321 53.2135 14.3016C53.215 14.2711 53.2104 14.2407 53.2 14.212ZM51.3617 55.1C51.3526 55.0706 51.3376 55.0432 51.3178 55.0196C51.298 54.996 51.2737 54.9766 51.2463 54.9624C51.2189 54.9483 51.1889 54.9397 51.1582 54.9372C51.1275 54.9348 51.0966 54.9384 51.0672 54.948L40.1755 58.3395C40.1462 58.3485 40.1189 58.3633 40.0953 58.3828C40.0717 58.4024 40.0521 58.4265 40.0378 58.4536C40.0235 58.4807 40.0146 58.5104 40.0118 58.5409C40.0089 58.5715 40.0121 58.6023 40.0211 58.6316C40.0302 58.6609 40.0449 58.6882 40.0645 58.7118C40.084 58.7354 40.1081 58.755 40.1352 58.7693C40.1623 58.7836 40.192 58.7925 40.2226 58.7954C40.2531 58.7982 40.2839 58.795 40.3132 58.786L51.205 55.3945C51.2646 55.3759 51.3144 55.3345 51.3438 55.2794C51.3731 55.2243 51.3796 55.1598 51.3617 55.1ZM48.925 58.3395C48.9158 58.3101 48.9009 58.2827 48.8811 58.2591C48.8612 58.2355 48.8369 58.216 48.8095 58.2019C48.7821 58.1878 48.7522 58.1792 48.7215 58.1767C48.6907 58.1743 48.6598 58.1779 48.6305 58.1875L40.7977 60.6242C40.7683 60.6334 40.741 60.6483 40.7174 60.6682C40.6937 60.688 40.6743 60.7123 40.6602 60.7397C40.646 60.7671 40.6375 60.7971 40.635 60.8278C40.6325 60.8585 40.6362 60.8894 40.6457 60.9187C40.6644 60.9783 40.7057 61.0282 40.7608 61.0575C40.816 61.0869 40.8804 61.0933 40.9402 61.0755L48.7682 58.634C48.8278 58.6154 48.8777 58.574 48.907 58.5189C48.9364 58.4638 48.9428 58.3993 48.925 58.3395ZM52.2737 59.508L41.382 62.9042C41.3527 62.9136 41.3255 62.9286 41.302 62.9485C41.2785 62.9684 41.2591 62.9927 41.245 63.02C41.2309 63.0474 41.2223 63.0772 41.2197 63.1079C41.2171 63.1386 41.2206 63.1694 41.23 63.1987C41.2394 63.2281 41.2544 63.2553 41.2743 63.2788C41.2941 63.3023 41.3184 63.3216 41.3458 63.3357C41.3731 63.3499 41.403 63.3584 41.4336 63.361C41.4643 63.3636 41.4952 63.3601 41.5245 63.3507L52.4162 59.9592C52.4457 59.9501 52.473 59.9351 52.4966 59.9153C52.5202 59.8955 52.5397 59.8712 52.5538 59.8438C52.568 59.8164 52.5765 59.7864 52.579 59.7557C52.5815 59.725 52.5778 59.6941 52.5682 59.6647C52.5496 59.6052 52.5083 59.5553 52.4531 59.526C52.398 59.4966 52.3336 59.4902 52.2737 59.508ZM66.823 50.2597L55.9312 53.675C55.9019 53.684 55.8747 53.6988 55.8511 53.7183C55.8274 53.7379 55.8079 53.762 55.7936 53.7891C55.7792 53.8162 55.7704 53.8459 55.7675 53.8764C55.7646 53.907 55.7678 53.9378 55.7769 53.9671C55.7859 53.9964 55.8006 54.0237 55.8202 54.0473C55.8398 54.0709 55.8638 54.0905 55.891 54.1048C55.9181 54.1191 55.9478 54.128 55.9783 54.1309C56.0089 54.1337 56.0397 54.1305 56.069 54.1215L66.975 50.711C67.038 50.6927 67.0911 50.6502 67.1228 50.5927C67.1544 50.5353 67.1619 50.4676 67.1436 50.4046C67.1253 50.3416 67.0828 50.2885 67.0253 50.2569C66.9679 50.2252 66.9002 50.2177 66.8372 50.236L66.823 50.2597ZM64.657 53.6465C64.6483 53.6172 64.6339 53.59 64.6145 53.5664C64.5952 53.5429 64.5713 53.5234 64.5443 53.5092C64.5172 53.495 64.4877 53.4864 64.4572 53.4839C64.4268 53.4814 64.3962 53.485 64.3672 53.4945L56.525 55.9312C56.4654 55.9499 56.4155 55.9912 56.3862 56.0463C56.3569 56.1015 56.3504 56.1659 56.3682 56.2257C56.3774 56.2552 56.3923 56.2825 56.4122 56.3061C56.432 56.3297 56.4563 56.3492 56.4837 56.3633C56.5111 56.3775 56.541 56.386 56.5718 56.3885C56.6025 56.391 56.6334 56.3873 56.6627 56.3777L64.4955 53.941C64.5258 53.9328 64.5541 53.9186 64.5788 53.8992C64.6034 53.8799 64.6239 53.8557 64.639 53.8282C64.6541 53.8007 64.6635 53.7704 64.6666 53.7392C64.6697 53.7079 64.6664 53.6764 64.657 53.6465ZM57 58.501C57.0087 58.5303 57.0231 58.5577 57.0424 58.5814C57.0617 58.6052 57.0855 58.6249 57.1124 58.6395C57.1393 58.654 57.1688 58.6631 57.1992 58.6663C57.2297 58.6694 57.2604 58.6665 57.2897 58.6577L68.1815 55.2662C68.2145 55.2602 68.2458 55.2473 68.2734 55.2283C68.301 55.2094 68.3243 55.1848 68.3417 55.1561C68.3592 55.1275 68.3704 55.0955 68.3745 55.0623C68.3787 55.0291 68.3758 54.9953 68.3661 54.9633C68.3563 54.9312 68.3398 54.9016 68.3178 54.8764C68.2957 54.8511 68.2686 54.8308 68.2382 54.8168C68.2077 54.8028 68.1747 54.7954 68.1411 54.7951C68.1076 54.7948 68.0744 54.8016 68.0437 54.815L57.152 58.2065C57.1226 58.2157 57.0952 58.2306 57.0716 58.2504C57.048 58.2702 57.0285 58.2946 57.0144 58.322C57.0003 58.3494 56.9917 58.3793 56.9892 58.41C56.9868 58.4408 56.9904 58.4717 57 58.501ZM43.7 70.4948L49.02 68.8797C49.0733 68.8564 49.1163 68.8143 49.1406 68.7614C49.1649 68.7085 49.169 68.6485 49.152 68.5928C49.135 68.5371 49.0981 68.4896 49.0484 68.4593C48.9986 68.429 48.9395 68.4181 48.8822 68.4285L43.5622 70.0435C43.5293 70.0495 43.498 70.0624 43.4703 70.0814C43.4427 70.1004 43.4194 70.125 43.402 70.1536C43.3846 70.1822 43.3734 70.2142 43.3692 70.2474C43.365 70.2807 43.3679 70.3144 43.3777 70.3465C43.3875 70.3785 43.4039 70.4082 43.426 70.4334C43.448 70.4586 43.4751 70.4789 43.5056 70.4929C43.536 70.5069 43.5691 70.5143 43.6026 70.5146C43.6361 70.515 43.6693 70.5082 43.7 70.4948ZM43.833 72.1478C43.8516 72.2073 43.893 72.2572 43.9481 72.2865C44.0032 72.3159 44.0677 72.3223 44.1275 72.3045L51.3 70.1243C51.3522 70.1006 51.3941 70.0589 51.4179 70.0068C51.4418 69.9547 51.446 69.8957 51.4298 69.8408C51.4136 69.7858 51.3781 69.7385 51.3298 69.7077C51.2815 69.6769 51.2237 69.6645 51.167 69.673L43.9755 71.8533C43.9185 71.8747 43.872 71.9172 43.8454 71.972C43.8189 72.0269 43.8145 72.0898 43.833 72.1478ZM45.6 73.8007L49.8465 72.5087C49.8762 72.5006 49.9039 72.4865 49.928 72.4674C49.9521 72.4482 49.9721 72.4244 49.9867 72.3974C50.0014 72.3703 50.0104 72.3405 50.0132 72.3099C50.0161 72.2792 50.0127 72.2483 50.0032 72.219C49.9945 72.1897 49.9801 72.1623 49.9608 72.1386C49.9416 72.1148 49.9178 72.0951 49.8909 72.0805C49.864 72.066 49.8344 72.0569 49.804 72.0537C49.7736 72.0506 49.7428 72.0535 49.7135 72.0622L45.4385 73.3495C45.4073 73.3585 45.3782 73.3736 45.3529 73.3939C45.3275 73.4142 45.3064 73.4393 45.2907 73.4678C45.2751 73.4962 45.2652 73.5275 45.2616 73.5597C45.258 73.592 45.2608 73.6247 45.2699 73.6559C45.2789 73.6871 45.294 73.7162 45.3143 73.7415C45.3346 73.7669 45.3597 73.788 45.3881 73.8036C45.4166 73.8193 45.4478 73.8292 45.4801 73.8328C45.5124 73.8364 45.5451 73.8335 45.5762 73.8245L45.6 73.8007ZM46.113 75.4347C46.1316 75.4943 46.173 75.5442 46.2281 75.5735C46.2832 75.6029 46.3477 75.6093 46.4075 75.5915L52.4875 73.7485C52.5408 73.7252 52.5838 73.683 52.6081 73.6301C52.6324 73.5772 52.6365 73.5173 52.6195 73.4616C52.6025 73.4059 52.5656 73.3584 52.5159 73.3281C52.4662 73.2978 52.407 73.2868 52.3497 73.2972L46.2697 75.1403C46.2102 75.1589 46.1603 75.2002 46.131 75.2553C46.1016 75.3105 46.0952 75.3749 46.113 75.4347ZM50.7205 76.057L45.6522 77.5913C45.6211 77.6003 45.592 77.6154 45.5666 77.6357C45.5412 77.656 45.5201 77.6811 45.5045 77.7095C45.4888 77.738 45.4789 77.7692 45.4753 77.8015C45.4718 77.8338 45.4746 77.8664 45.4836 77.8976C45.4927 77.9288 45.5078 77.9579 45.5281 77.9833C45.5483 78.0086 45.5734 78.0297 45.6019 78.0454C45.6303 78.0611 45.6616 78.071 45.6939 78.0745C45.7261 78.0781 45.7588 78.0753 45.79 78.0663L50.8582 76.5273C50.9175 76.509 50.967 76.4679 50.9959 76.4132C51.0249 76.3584 51.0309 76.2943 51.0126 76.2351C50.9944 76.1759 50.9533 76.1264 50.8985 76.0974C50.8437 76.0685 50.7797 76.0625 50.7205 76.0807V76.057ZM53.3282 67.6922L57.7125 66.4477C57.7755 66.4307 57.8291 66.3894 57.8616 66.3328C57.8942 66.2763 57.9029 66.2091 57.8859 66.1461C57.8689 66.0831 57.8275 66.0295 57.771 65.997C57.7144 65.9645 57.6472 65.9557 57.5842 65.9727L53.2 67.241C53.1698 67.2487 53.1415 67.2624 53.1167 67.2812C53.0919 67.3001 53.0711 67.3237 53.0556 67.3507C53.0401 67.3777 53.0302 67.4076 53.0264 67.4385C53.0227 67.4694 53.0252 67.5008 53.0337 67.5307C53.0524 67.5905 53.0936 67.6407 53.1485 67.6708C53.2034 67.7009 53.2678 67.7086 53.3282 67.6922ZM53.6037 69.35C53.6119 69.3798 53.626 69.4076 53.6451 69.4319C53.6641 69.4562 53.6878 69.4764 53.7148 69.4914C53.7418 69.5065 53.7715 69.516 53.8021 69.5194C53.8328 69.5229 53.8639 69.5202 53.8935 69.5115L58.9712 68.0865C59.0342 68.0695 59.0879 68.0282 59.1204 67.9716C59.1529 67.915 59.1616 67.8479 59.1446 67.7849C59.1276 67.7219 59.0863 67.6682 59.0297 67.6357C58.9731 67.6032 58.906 67.5945 58.843 67.6115L53.7652 69.0365C53.7323 69.0436 53.7012 69.0579 53.6745 69.0784C53.6477 69.0989 53.6258 69.125 53.6103 69.155C53.5949 69.185 53.5863 69.2181 53.5851 69.2518C53.584 69.2855 53.5903 69.319 53.6037 69.35ZM58.824 69.825C58.8053 69.7652 58.7642 69.715 58.7093 69.6849C58.6544 69.6548 58.5899 69.6471 58.5295 69.6635L54.3305 70.8557C54.2993 70.8642 54.2701 70.8787 54.2445 70.8984C54.2189 70.9181 54.1974 70.9426 54.1813 70.9707C54.1488 71.0272 54.1401 71.0944 54.1571 71.1574C54.1741 71.2204 54.2155 71.274 54.272 71.3065C54.3286 71.339 54.3958 71.3478 54.4587 71.3307L58.6625 70.1385C58.6942 70.1294 58.7238 70.1139 58.7493 70.0929C58.7748 70.0719 58.7958 70.046 58.8109 70.0166C58.8261 69.9873 58.835 69.9551 58.8373 69.9222C58.8395 69.8892 58.835 69.8561 58.824 69.825ZM54.7342 72.9648C54.7425 72.9945 54.7565 73.0223 54.7756 73.0466C54.7946 73.0709 54.8183 73.0911 54.8453 73.1062C54.8723 73.1212 54.902 73.1307 54.9326 73.1342C54.9633 73.1376 54.9944 73.1349 55.024 73.1262L59.9877 71.7012C60.0179 71.6936 60.0461 71.6799 60.0707 71.661C60.0954 71.6421 60.1159 71.6183 60.131 71.5912C60.1461 71.5641 60.1555 71.5341 60.1587 71.5032C60.1618 71.4723 60.1586 71.4411 60.1492 71.4115C60.1411 71.3807 60.1268 71.3518 60.1071 71.3268C60.0874 71.3017 60.0627 71.2809 60.0347 71.2658C60.0066 71.2507 59.9757 71.2414 59.944 71.2387C59.9122 71.236 59.8802 71.2398 59.85 71.25L54.8862 72.675C54.8286 72.6946 54.7807 72.7356 54.7524 72.7895C54.7241 72.8434 54.7176 72.9062 54.7342 72.9648ZM58.9 73.511L55.4705 74.4847C55.4075 74.5018 55.3539 74.5431 55.3213 74.5997C55.2888 74.6562 55.2801 74.7234 55.2971 74.7864C55.3141 74.8494 55.3555 74.903 55.412 74.9355C55.4686 74.968 55.5358 74.9768 55.5987 74.9597L59.0282 73.986C59.0912 73.969 59.1449 73.9277 59.1774 73.8711C59.2099 73.8145 59.2186 73.7474 59.2016 73.6844C59.1846 73.6214 59.1433 73.5677 59.0867 73.5352C59.0301 73.5027 58.963 73.494 58.9 73.511ZM36.1617 30.4332C36.4055 30.6756 36.7052 30.8541 37.0344 30.9529C37.3636 31.0518 37.712 31.0679 38.049 30.9999C38.3859 30.9319 38.7008 30.7819 38.9659 30.5631C39.2309 30.3443 39.438 30.0635 39.5686 29.7456C39.6992 29.4277 39.7494 29.0824 39.7148 28.7405C39.6801 28.3985 39.5617 28.0704 39.3699 27.7852C39.1781 27.4999 38.919 27.2664 38.6154 27.1052C38.3118 26.9441 37.9732 26.8603 37.6295 26.8612C37.2141 26.8578 36.8071 26.9788 36.4611 27.2086C36.115 27.4385 35.8457 27.7667 35.6878 28.1509C35.5299 28.5352 35.4906 28.9579 35.5751 29.3647C35.6596 29.7715 35.8639 30.1436 36.1617 30.4332ZM36.366 27.6782C36.5773 27.4694 36.8368 27.3158 37.1216 27.231C37.4064 27.1462 37.7076 27.1328 37.9988 27.1921C38.29 27.2513 38.5621 27.3813 38.7911 27.5706C39.0201 27.7599 39.199 28.0027 39.3119 28.2775C39.4249 28.5523 39.4685 28.8507 39.4388 29.1463C39.4091 29.4419 39.3071 29.7257 39.1417 29.9726C38.9764 30.2195 38.7528 30.4218 38.4907 30.5618C38.2286 30.7018 37.9361 30.7751 37.639 30.7752C37.2801 30.7754 36.9292 30.6689 36.631 30.4691C36.3328 30.2694 36.1007 29.9855 35.9642 29.6535C35.8278 29.3216 35.7931 28.9565 35.8646 28.6048C35.9362 28.253 36.1107 27.9305 36.366 27.6782Z" fill="white"/>
<path d="M45.7995 40.4652C44.5235 42.5835 43.3966 44.7881 42.427 47.063C40.4284 46.0162 38.366 45.096 36.252 44.308C36.226 44.3003 36.1981 44.3018 36.1731 44.3122C36.148 44.3226 36.1272 44.3412 36.1142 44.365C36.1026 44.3916 36.1015 44.4216 36.1112 44.449C36.1209 44.4763 36.1407 44.499 36.1665 44.5122C38.608 45.7235 42.2275 47.538 42.2275 47.538C41.2715 49.7776 40.4514 52.0729 39.7717 54.4112C39.7674 54.4274 39.7668 54.4443 39.77 54.4606C39.7732 54.477 39.7801 54.4925 39.7902 54.5058C39.8003 54.5191 39.8133 54.5299 39.8282 54.5374C39.8431 54.5449 39.8596 54.5488 39.8762 54.549C40.0567 54.549 39.8477 54.549 42.6882 47.7802C44.1512 48.5497 46.4882 49.8702 49.1102 51.452C49.1348 51.4684 49.1649 51.4743 49.1938 51.4685C49.2228 51.4627 49.2482 51.4457 49.2646 51.4211C49.281 51.3966 49.2869 51.3665 49.2812 51.3375C49.2754 51.3086 49.2583 51.2831 49.2337 51.2667C47.2195 49.7908 45.0983 48.4667 42.8877 47.3052C43.7237 45.3482 44.7402 43.1442 45.9942 40.5697C46.0081 40.5439 46.0111 40.5136 46.0027 40.4856C45.9942 40.4575 45.9749 40.434 45.9491 40.4201C45.9233 40.4063 45.893 40.4032 45.865 40.4117C45.8369 40.4202 45.8134 40.4394 45.7995 40.4652ZM51.68 39.9C53.58 40.85 54.7438 41.3677 57.855 42.978C56.8439 45.1893 55.9884 47.4685 55.2948 49.799C55.2859 49.8267 55.2885 49.8568 55.3018 49.8826C55.3152 49.9085 55.3383 49.9279 55.366 49.9367C55.3937 49.9456 55.4238 49.943 55.4496 49.9296C55.4755 49.9163 55.4949 49.8932 55.5037 49.8655C56.4917 47.462 56.1212 48.1602 58.3205 43.2155C60.2205 44.232 62.3628 45.4527 64.638 46.8302C64.6626 46.8466 64.6926 46.8526 64.7216 46.8468C64.7505 46.841 64.776 46.8239 64.7924 46.7994C64.8088 46.7748 64.8147 46.7447 64.8089 46.7158C64.8031 46.6868 64.7861 46.6614 64.7615 46.645C62.7774 45.1981 60.6915 43.8964 58.52 42.75C59.527 40.5697 60.6433 38.3562 61.5363 36.5085C61.5461 36.4837 61.5466 36.4562 61.5376 36.4312C61.5286 36.4061 61.5108 36.3851 61.4874 36.3723C61.4641 36.3594 61.4368 36.3556 61.4108 36.3614C61.3848 36.3673 61.3619 36.3824 61.3462 36.404C60.1421 38.3774 59.0463 40.415 58.064 42.5077C56.0299 41.4384 53.9292 40.5007 51.775 39.7005C51.7485 39.6879 51.7182 39.6863 51.6906 39.6961C51.6629 39.7059 51.6403 39.7263 51.6278 39.7527C51.6152 39.7792 51.6136 39.8096 51.6234 39.8372C51.6332 39.8648 51.6535 39.8874 51.68 39.9ZM62.1443 66.1485C62.2921 65.9993 62.3929 65.81 62.4341 65.604C62.4754 65.3981 62.4554 65.1846 62.3765 64.9899C62.2976 64.7952 62.1634 64.628 61.9904 64.5088C61.8174 64.3897 61.6132 64.324 61.4033 64.3197C61.2309 64.3219 61.0616 64.3661 60.9102 64.4484C60.7588 64.5308 60.6297 64.6489 60.5343 64.7925C60.4389 64.9361 60.3799 65.1007 60.3625 65.2723C60.3452 65.4438 60.3699 65.6169 60.4347 65.7767C60.4994 65.9365 60.6022 66.078 60.734 66.1891C60.8659 66.3001 61.0229 66.3773 61.1913 66.414C61.3598 66.4506 61.5346 66.4456 61.7007 66.3993C61.8667 66.353 62.019 66.2669 62.1443 66.1485ZM60.648 65.056C60.7043 64.9355 60.7889 64.8304 60.8945 64.7496C61.0001 64.6688 61.1237 64.6147 61.2547 64.5918C61.3857 64.569 61.5203 64.5781 61.6471 64.6184C61.7738 64.6587 61.889 64.7289 61.9828 64.8232C62.0577 64.8979 62.1166 64.9871 62.156 65.0854C62.1953 65.1836 62.2142 65.2888 62.2116 65.3946C62.2089 65.5004 62.1847 65.6045 62.1405 65.7007C62.0962 65.7968 62.0329 65.8829 61.9542 65.9537C61.7992 66.0956 61.5967 66.1743 61.3866 66.1743C61.1765 66.1743 60.974 66.0956 60.819 65.9537C60.7048 65.8419 60.6272 65.6979 60.5967 65.541C60.5662 65.384 60.584 65.2215 60.648 65.075V65.056ZM64.087 65.3695C64.2809 65.4585 64.4974 65.4857 64.7073 65.4474C64.9172 65.4092 65.1102 65.3074 65.2603 65.1557C65.452 64.9529 65.5588 64.6844 65.5588 64.4052C65.5588 64.1261 65.452 63.8576 65.2603 63.6547C65.164 63.5539 65.0483 63.4736 64.9201 63.4187C64.7919 63.3638 64.6539 63.3355 64.5145 63.3355C64.3751 63.3355 64.2371 63.3638 64.1089 63.4187C63.9807 63.4736 63.865 63.5539 63.7688 63.6547C63.6518 63.7782 63.5657 63.9276 63.5174 64.0907C63.4692 64.2537 63.4603 64.4259 63.4913 64.5931C63.5223 64.7604 63.5925 64.9179 63.696 65.0528C63.7995 65.1877 63.9335 65.2962 64.087 65.3695ZM63.764 64.0632C63.8203 63.9428 63.9049 63.8377 64.0105 63.7569C64.1161 63.676 64.2397 63.6219 64.3707 63.5991C64.5017 63.5762 64.6363 63.5853 64.7631 63.6256C64.8898 63.6659 65.005 63.7362 65.0988 63.8305C65.1737 63.9052 65.2326 63.9944 65.272 64.0926C65.3113 64.1909 65.3302 64.2961 65.3276 64.4019C65.3249 64.5077 65.3007 64.6118 65.2565 64.7079C65.2122 64.8041 65.1489 64.8902 65.0703 64.961C64.916 65.1025 64.7143 65.181 64.505 65.181C64.2957 65.181 64.094 65.1025 63.9398 64.961C63.8189 64.8494 63.7367 64.7023 63.7051 64.5408C63.6735 64.3794 63.6941 64.2121 63.764 64.0632ZM68.4 64.1582C68.5482 64.0099 68.6495 63.8213 68.6913 63.6159C68.7331 63.4104 68.7135 63.1972 68.6351 63.0028C68.5566 62.8084 68.4226 62.6413 68.2499 62.5224C68.0772 62.4036 67.8734 62.3381 67.6637 62.3342C67.4906 62.3348 67.3203 62.3777 67.1677 62.4594C67.015 62.541 66.8847 62.6588 66.7881 62.8024C66.6915 62.946 66.6316 63.1112 66.6136 63.2833C66.5956 63.4555 66.62 63.6294 66.6848 63.79C66.7496 63.9505 66.8528 64.0927 66.9852 64.2041C67.1177 64.3155 67.2755 64.3928 67.4447 64.4291C67.614 64.4655 67.7895 64.4598 67.9561 64.4126C68.1226 64.3653 68.275 64.278 68.4 64.1582ZM66.9038 63.0705C66.9601 62.95 67.0446 62.8449 67.1503 62.7641C67.2559 62.6833 67.3795 62.6292 67.5105 62.6063C67.6415 62.5835 67.7761 62.5926 67.9028 62.6329C68.0296 62.6732 68.1447 62.7434 68.2385 62.8377C68.3133 62.912 68.3722 63.0008 68.4115 63.0987C68.4508 63.1965 68.4696 63.3014 68.467 63.4068C68.4643 63.5122 68.4401 63.6159 68.396 63.7116C68.3518 63.8074 68.2885 63.8931 68.21 63.9635C68.0563 64.106 67.8544 64.1853 67.6448 64.1853C67.4351 64.1853 67.2332 64.106 67.0795 63.9635C66.9563 63.8547 66.8707 63.7098 66.8348 63.5494C66.799 63.389 66.8148 63.2214 66.88 63.0705H66.9038ZM70.3 63.384C70.4944 63.4724 70.7112 63.4988 70.9211 63.4597C71.131 63.4206 71.3237 63.3179 71.4733 63.1655C71.6669 62.9646 71.775 62.6964 71.775 62.4174C71.775 62.1383 71.6669 61.8702 71.4733 61.6692C71.3783 61.5674 71.2637 61.4858 71.1364 61.4293C71.0092 61.3727 70.8718 61.3424 70.7326 61.3402C70.5933 61.338 70.455 61.3639 70.326 61.4163C70.197 61.4688 70.0799 61.5467 69.9818 61.6455C69.8608 61.7694 69.7714 61.9204 69.7209 62.0859C69.6703 62.2515 69.6603 62.4268 69.6914 62.597C69.7226 62.7673 69.7941 62.9276 69.9 63.0645C70.0059 63.2014 70.1431 63.311 70.3 63.384ZM69.9818 62.073C70.0383 61.9534 70.1227 61.8491 70.228 61.7689C70.3332 61.6887 70.4561 61.635 70.5865 61.6122C70.7168 61.5893 70.8507 61.5982 70.9769 61.6378C71.1031 61.6775 71.2179 61.7469 71.3118 61.8402C71.4095 61.9462 71.4769 62.0766 71.5069 62.2176C71.5368 62.3587 71.5282 62.5052 71.482 62.6418C71.4358 62.7783 71.3536 62.8999 71.2442 62.9938C71.1347 63.0877 71.002 63.1503 70.86 63.1752C70.718 63.2 70.5719 63.1862 70.4371 63.1351C70.3022 63.0839 70.1837 62.9975 70.0938 62.8847C70.004 62.7719 69.9461 62.6371 69.9264 62.4942C69.9067 62.3514 69.9258 62.2059 69.9818 62.073Z" fill="white"/>
</svg>
